<svg width="120" height="120" viewBox="0 0 120 120" fill="none" xmlns="http://www.w3.org/2000/svg">
<path d="M60 10.001C69.8891 10.001 79.556 12.9334 87.7785 18.4275C96.0009 23.9216 102.41 31.7305 106.194 40.8668C109.978 50.0031 110.968 60.0564 109.039 69.7555C107.11 79.4545 102.348 88.3636 95.3553 95.3563" stroke="#C7CCFF" stroke-width="8"/>
<path d="M60 10.0001C51.7774 10.0001 43.6818 12.0279 36.4302 15.904C29.1785 19.7801 22.9947 25.3847 18.4265 32.2215C13.8583 39.0583 11.0467 46.9162 10.2408 55.0992C9.43482 63.2821 10.6594 71.5375 13.806 79.1342C16.9527 86.7308 21.9242 93.4342 28.2803 98.6505C34.6364 103.867 42.1809 107.435 50.2455 109.039C58.31 110.643 66.6457 110.234 74.5142 107.847C82.3827 105.46 89.5411 101.17 95.3553 95.3553" stroke="#495CFF" stroke-width="8" stroke-linecap="round"/>
</svg>
