<svg width="160" height="160" viewBox="0 0 160 160" fill="none" xmlns="http://www.w3.org/2000/svg">
<path d="M80 20.0012C91.8669 20.0012 103.467 23.5201 113.334 30.113C123.201 36.7059 130.891 46.0766 135.433 57.0402C139.974 68.0037 141.162 80.0677 138.847 91.7066C136.532 103.345 130.818 114.036 122.426 122.428" stroke="#C7CCFF" stroke-width="20"/>
<path d="M80 20.0001C70.1329 20.0001 60.4181 22.4335 51.7162 27.0848C43.0142 31.7361 35.5937 38.4617 30.1118 46.6658C24.63 54.87 21.2561 64.2995 20.2889 74.119C19.3218 83.9385 20.7913 93.8451 24.5672 102.961C28.3432 112.077 34.3091 120.121 41.9364 126.381C49.5637 132.64 58.6171 136.922 68.2946 138.847C77.972 140.772 87.9749 140.281 97.417 137.416C106.859 134.552 115.449 129.403 122.426 122.426" stroke="#495CFF" stroke-width="20" stroke-linecap="round"/>
</svg>
