<svg width="100" height="100" viewBox="0 0 100 100" fill="none" xmlns="http://www.w3.org/2000/svg">
<rect width="100" height="100" fill="white"/>
<path d="M27.117 22.2412H72.8202V21.7704C72.8202 17.0305 69.022 14.8019 63.7486 14.8019H36.22C31.1663 14.8019 27.117 17.0305 27.117 21.7704V22.2412ZM33.1752 83.4821H66.7934C71.2821 83.4821 73.5107 81.4418 73.5107 76.7648V71.4599H75.7394C82.1115 71.4599 85.5957 68.1327 85.5957 61.7292V36.492C85.5957 30.0886 82.1115 26.7613 75.7394 26.7613H24.2292C18.0769 26.7613 14.3729 30.0886 14.3729 36.492V61.7292C14.3729 68.1327 17.8257 71.4599 24.2292 71.4599H26.4265V76.7648C26.4265 81.4418 28.6551 83.4821 33.1752 83.4821ZM64.91 37.6534C64.91 35.4248 66.8248 33.4786 69.1162 33.4786C71.3762 33.4786 73.291 35.4248 73.291 37.6534C73.291 39.9763 71.3762 41.7969 69.1162 41.8282C66.8248 41.8282 64.91 39.9763 64.91 37.6534ZM34.4622 78.0204C32.9555 78.0204 32.2021 77.2984 32.2021 75.7603V53.0029C32.2021 51.4962 32.9555 50.7743 34.4622 50.7743H65.5378C67.0445 50.7743 67.7664 51.4962 67.7664 53.0029V75.7603C67.7664 77.2984 67.0445 78.0204 65.5378 78.0204H34.4622ZM39.6414 61.2897H60.3585C61.5827 61.2897 62.5244 60.3167 62.5244 59.0925C62.5244 57.9311 61.5827 56.9894 60.3585 56.9894H39.6414C38.3859 56.9894 37.4756 57.9311 37.4756 59.0925C37.4756 60.3167 38.4173 61.2897 39.6414 61.2897ZM39.6414 71.9308H60.3585C61.5827 71.9308 62.5244 70.9891 62.5244 69.8277C62.5244 68.6035 61.5827 67.6618 60.3585 67.6618H39.6414C38.4173 67.6618 37.4756 68.6035 37.4756 69.8277C37.4756 70.9891 38.3859 71.9308 39.6414 71.9308Z" fill="black"/>
</svg>
